<mxfile host="Electron" agent="Mozilla/5.0 (Windows NT 10.0; Win64; x64) AppleWebKit/537.36 (KHTML, like Gecko) draw.io/27.0.5 Chrome/134.0.6998.205 Electron/35.3.0 Safari/537.36" version="27.0.5">
  <diagram name="Page-1" id="aH5BXJFp6cUGeo4-eLsd">
    <mxGraphModel dx="815" dy="485" grid="1" gridSize="10" guides="1" tooltips="1" connect="1" arrows="1" fold="1" page="1" pageScale="1" pageWidth="850" pageHeight="1100" math="0" shadow="0">
      <root>
        <mxCell id="0" />
        <mxCell id="1" parent="0" />
        <mxCell id="al9rC75p6lYIj5IH4z2D-44" style="edgeStyle=orthogonalEdgeStyle;rounded=0;orthogonalLoop=1;jettySize=auto;html=1;endArrow=ERzeroToMany;endFill=0;startArrow=ERmandOne;startFill=0;" edge="1" parent="1" source="al9rC75p6lYIj5IH4z2D-1" target="al9rC75p6lYIj5IH4z2D-18">
          <mxGeometry relative="1" as="geometry" />
        </mxCell>
        <mxCell id="al9rC75p6lYIj5IH4z2D-1" value="BE_EVENTOS_391IAU" style="shape=table;startSize=25;container=1;collapsible=0;childLayout=tableLayout;fixedRows=1;rowLines=1;fontStyle=1;align=center;resizeLast=1;" vertex="1" parent="1">
          <mxGeometry x="40" y="333.5" width="237" height="214" as="geometry" />
        </mxCell>
        <mxCell id="al9rC75p6lYIj5IH4z2D-2" style="shape=tableRow;horizontal=0;startSize=0;swimlaneHead=0;swimlaneBody=0;fillColor=none;collapsible=0;dropTarget=0;points=[[0,0.5],[1,0.5]];portConstraint=eastwest;top=0;left=0;right=0;bottom=0;" vertex="1" parent="al9rC75p6lYIj5IH4z2D-1">
          <mxGeometry y="25" width="237" height="47" as="geometry" />
        </mxCell>
        <mxCell id="al9rC75p6lYIj5IH4z2D-3" value="int" style="shape=partialRectangle;connectable=0;fillColor=none;top=0;left=0;bottom=0;right=0;align=left;spacingLeft=2;overflow=hidden;fontSize=11;" vertex="1" parent="al9rC75p6lYIj5IH4z2D-2">
          <mxGeometry width="36" height="47" as="geometry">
            <mxRectangle width="36" height="47" as="alternateBounds" />
          </mxGeometry>
        </mxCell>
        <mxCell id="al9rC75p6lYIj5IH4z2D-4" value="IDEvento" style="shape=partialRectangle;connectable=0;fillColor=none;top=0;left=0;bottom=0;right=0;align=left;spacingLeft=2;overflow=hidden;fontSize=11;" vertex="1" parent="al9rC75p6lYIj5IH4z2D-2">
          <mxGeometry x="36" width="179" height="47" as="geometry">
            <mxRectangle width="179" height="47" as="alternateBounds" />
          </mxGeometry>
        </mxCell>
        <mxCell id="al9rC75p6lYIj5IH4z2D-5" value="PK" style="shape=partialRectangle;connectable=0;fillColor=none;top=0;left=0;bottom=0;right=0;align=left;spacingLeft=2;overflow=hidden;fontSize=11;" vertex="1" parent="al9rC75p6lYIj5IH4z2D-2">
          <mxGeometry x="215" width="22" height="47" as="geometry">
            <mxRectangle width="22" height="47" as="alternateBounds" />
          </mxGeometry>
        </mxCell>
        <mxCell id="al9rC75p6lYIj5IH4z2D-6" style="shape=tableRow;horizontal=0;startSize=0;swimlaneHead=0;swimlaneBody=0;fillColor=none;collapsible=0;dropTarget=0;points=[[0,0.5],[1,0.5]];portConstraint=eastwest;top=0;left=0;right=0;bottom=0;" vertex="1" parent="al9rC75p6lYIj5IH4z2D-1">
          <mxGeometry y="72" width="237" height="47" as="geometry" />
        </mxCell>
        <mxCell id="al9rC75p6lYIj5IH4z2D-7" value="string" style="shape=partialRectangle;connectable=0;fillColor=none;top=0;left=0;bottom=0;right=0;align=left;spacingLeft=2;overflow=hidden;fontSize=11;" vertex="1" parent="al9rC75p6lYIj5IH4z2D-6">
          <mxGeometry width="36" height="47" as="geometry">
            <mxRectangle width="36" height="47" as="alternateBounds" />
          </mxGeometry>
        </mxCell>
        <mxCell id="al9rC75p6lYIj5IH4z2D-8" value="NombreArtista" style="shape=partialRectangle;connectable=0;fillColor=none;top=0;left=0;bottom=0;right=0;align=left;spacingLeft=2;overflow=hidden;fontSize=11;" vertex="1" parent="al9rC75p6lYIj5IH4z2D-6">
          <mxGeometry x="36" width="179" height="47" as="geometry">
            <mxRectangle width="179" height="47" as="alternateBounds" />
          </mxGeometry>
        </mxCell>
        <mxCell id="al9rC75p6lYIj5IH4z2D-9" value="" style="shape=partialRectangle;connectable=0;fillColor=none;top=0;left=0;bottom=0;right=0;align=left;spacingLeft=2;overflow=hidden;fontSize=11;" vertex="1" parent="al9rC75p6lYIj5IH4z2D-6">
          <mxGeometry x="215" width="22" height="47" as="geometry">
            <mxRectangle width="22" height="47" as="alternateBounds" />
          </mxGeometry>
        </mxCell>
        <mxCell id="al9rC75p6lYIj5IH4z2D-10" style="shape=tableRow;horizontal=0;startSize=0;swimlaneHead=0;swimlaneBody=0;fillColor=none;collapsible=0;dropTarget=0;points=[[0,0.5],[1,0.5]];portConstraint=eastwest;top=0;left=0;right=0;bottom=0;" vertex="1" parent="al9rC75p6lYIj5IH4z2D-1">
          <mxGeometry y="119" width="237" height="47" as="geometry" />
        </mxCell>
        <mxCell id="al9rC75p6lYIj5IH4z2D-11" value="string" style="shape=partialRectangle;connectable=0;fillColor=none;top=0;left=0;bottom=0;right=0;align=left;spacingLeft=2;overflow=hidden;fontSize=11;" vertex="1" parent="al9rC75p6lYIj5IH4z2D-10">
          <mxGeometry width="36" height="47" as="geometry">
            <mxRectangle width="36" height="47" as="alternateBounds" />
          </mxGeometry>
        </mxCell>
        <mxCell id="al9rC75p6lYIj5IH4z2D-12" value="Estadio" style="shape=partialRectangle;connectable=0;fillColor=none;top=0;left=0;bottom=0;right=0;align=left;spacingLeft=2;overflow=hidden;fontSize=11;" vertex="1" parent="al9rC75p6lYIj5IH4z2D-10">
          <mxGeometry x="36" width="179" height="47" as="geometry">
            <mxRectangle width="179" height="47" as="alternateBounds" />
          </mxGeometry>
        </mxCell>
        <mxCell id="al9rC75p6lYIj5IH4z2D-13" value="" style="shape=partialRectangle;connectable=0;fillColor=none;top=0;left=0;bottom=0;right=0;align=left;spacingLeft=2;overflow=hidden;fontSize=11;" vertex="1" parent="al9rC75p6lYIj5IH4z2D-10">
          <mxGeometry x="215" width="22" height="47" as="geometry">
            <mxRectangle width="22" height="47" as="alternateBounds" />
          </mxGeometry>
        </mxCell>
        <mxCell id="al9rC75p6lYIj5IH4z2D-14" style="shape=tableRow;horizontal=0;startSize=0;swimlaneHead=0;swimlaneBody=0;fillColor=none;collapsible=0;dropTarget=0;points=[[0,0.5],[1,0.5]];portConstraint=eastwest;top=0;left=0;right=0;bottom=0;" vertex="1" parent="al9rC75p6lYIj5IH4z2D-1">
          <mxGeometry y="166" width="237" height="47" as="geometry" />
        </mxCell>
        <mxCell id="al9rC75p6lYIj5IH4z2D-15" value="date" style="shape=partialRectangle;connectable=0;fillColor=none;top=0;left=0;bottom=0;right=0;align=left;spacingLeft=2;overflow=hidden;fontSize=11;" vertex="1" parent="al9rC75p6lYIj5IH4z2D-14">
          <mxGeometry width="36" height="47" as="geometry">
            <mxRectangle width="36" height="47" as="alternateBounds" />
          </mxGeometry>
        </mxCell>
        <mxCell id="al9rC75p6lYIj5IH4z2D-16" value="Fecha" style="shape=partialRectangle;connectable=0;fillColor=none;top=0;left=0;bottom=0;right=0;align=left;spacingLeft=2;overflow=hidden;fontSize=11;" vertex="1" parent="al9rC75p6lYIj5IH4z2D-14">
          <mxGeometry x="36" width="179" height="47" as="geometry">
            <mxRectangle width="179" height="47" as="alternateBounds" />
          </mxGeometry>
        </mxCell>
        <mxCell id="al9rC75p6lYIj5IH4z2D-17" value="" style="shape=partialRectangle;connectable=0;fillColor=none;top=0;left=0;bottom=0;right=0;align=left;spacingLeft=2;overflow=hidden;fontSize=11;" vertex="1" parent="al9rC75p6lYIj5IH4z2D-14">
          <mxGeometry x="215" width="22" height="47" as="geometry">
            <mxRectangle width="22" height="47" as="alternateBounds" />
          </mxGeometry>
        </mxCell>
        <mxCell id="al9rC75p6lYIj5IH4z2D-18" value="BE_SECTORES_391IAU" style="shape=table;startSize=25;container=1;collapsible=0;childLayout=tableLayout;fixedRows=1;rowLines=1;fontStyle=1;align=center;resizeLast=1;" vertex="1" parent="1">
          <mxGeometry x="400" y="290" width="230" height="301" as="geometry" />
        </mxCell>
        <mxCell id="al9rC75p6lYIj5IH4z2D-19" style="shape=tableRow;horizontal=0;startSize=0;swimlaneHead=0;swimlaneBody=0;fillColor=none;collapsible=0;dropTarget=0;points=[[0,0.5],[1,0.5]];portConstraint=eastwest;top=0;left=0;right=0;bottom=0;" vertex="1" parent="al9rC75p6lYIj5IH4z2D-18">
          <mxGeometry y="25" width="230" height="46" as="geometry" />
        </mxCell>
        <mxCell id="al9rC75p6lYIj5IH4z2D-20" value="int" style="shape=partialRectangle;connectable=0;fillColor=none;top=0;left=0;bottom=0;right=0;align=left;spacingLeft=2;overflow=hidden;fontSize=11;" vertex="1" parent="al9rC75p6lYIj5IH4z2D-19">
          <mxGeometry width="42" height="46" as="geometry">
            <mxRectangle width="42" height="46" as="alternateBounds" />
          </mxGeometry>
        </mxCell>
        <mxCell id="al9rC75p6lYIj5IH4z2D-21" value="IDSector" style="shape=partialRectangle;connectable=0;fillColor=none;top=0;left=0;bottom=0;right=0;align=left;spacingLeft=2;overflow=hidden;fontSize=11;" vertex="1" parent="al9rC75p6lYIj5IH4z2D-19">
          <mxGeometry x="42" width="166" height="46" as="geometry">
            <mxRectangle width="166" height="46" as="alternateBounds" />
          </mxGeometry>
        </mxCell>
        <mxCell id="al9rC75p6lYIj5IH4z2D-22" value="PK" style="shape=partialRectangle;connectable=0;fillColor=none;top=0;left=0;bottom=0;right=0;align=left;spacingLeft=2;overflow=hidden;fontSize=11;" vertex="1" parent="al9rC75p6lYIj5IH4z2D-19">
          <mxGeometry x="208" width="22" height="46" as="geometry">
            <mxRectangle width="22" height="46" as="alternateBounds" />
          </mxGeometry>
        </mxCell>
        <mxCell id="al9rC75p6lYIj5IH4z2D-23" style="shape=tableRow;horizontal=0;startSize=0;swimlaneHead=0;swimlaneBody=0;fillColor=none;collapsible=0;dropTarget=0;points=[[0,0.5],[1,0.5]];portConstraint=eastwest;top=0;left=0;right=0;bottom=0;" vertex="1" parent="al9rC75p6lYIj5IH4z2D-18">
          <mxGeometry y="71" width="230" height="46" as="geometry" />
        </mxCell>
        <mxCell id="al9rC75p6lYIj5IH4z2D-24" value="int" style="shape=partialRectangle;connectable=0;fillColor=none;top=0;left=0;bottom=0;right=0;align=left;spacingLeft=2;overflow=hidden;fontSize=11;" vertex="1" parent="al9rC75p6lYIj5IH4z2D-23">
          <mxGeometry width="42" height="46" as="geometry">
            <mxRectangle width="42" height="46" as="alternateBounds" />
          </mxGeometry>
        </mxCell>
        <mxCell id="al9rC75p6lYIj5IH4z2D-25" value="IDEvento" style="shape=partialRectangle;connectable=0;fillColor=none;top=0;left=0;bottom=0;right=0;align=left;spacingLeft=2;overflow=hidden;fontSize=11;" vertex="1" parent="al9rC75p6lYIj5IH4z2D-23">
          <mxGeometry x="42" width="166" height="46" as="geometry">
            <mxRectangle width="166" height="46" as="alternateBounds" />
          </mxGeometry>
        </mxCell>
        <mxCell id="al9rC75p6lYIj5IH4z2D-26" value="FK" style="shape=partialRectangle;connectable=0;fillColor=none;top=0;left=0;bottom=0;right=0;align=left;spacingLeft=2;overflow=hidden;fontSize=11;" vertex="1" parent="al9rC75p6lYIj5IH4z2D-23">
          <mxGeometry x="208" width="22" height="46" as="geometry">
            <mxRectangle width="22" height="46" as="alternateBounds" />
          </mxGeometry>
        </mxCell>
        <mxCell id="al9rC75p6lYIj5IH4z2D-27" style="shape=tableRow;horizontal=0;startSize=0;swimlaneHead=0;swimlaneBody=0;fillColor=none;collapsible=0;dropTarget=0;points=[[0,0.5],[1,0.5]];portConstraint=eastwest;top=0;left=0;right=0;bottom=0;" vertex="1" parent="al9rC75p6lYIj5IH4z2D-18">
          <mxGeometry y="117" width="230" height="46" as="geometry" />
        </mxCell>
        <mxCell id="al9rC75p6lYIj5IH4z2D-28" value="string" style="shape=partialRectangle;connectable=0;fillColor=none;top=0;left=0;bottom=0;right=0;align=left;spacingLeft=2;overflow=hidden;fontSize=11;" vertex="1" parent="al9rC75p6lYIj5IH4z2D-27">
          <mxGeometry width="42" height="46" as="geometry">
            <mxRectangle width="42" height="46" as="alternateBounds" />
          </mxGeometry>
        </mxCell>
        <mxCell id="al9rC75p6lYIj5IH4z2D-29" value="Nombre" style="shape=partialRectangle;connectable=0;fillColor=none;top=0;left=0;bottom=0;right=0;align=left;spacingLeft=2;overflow=hidden;fontSize=11;" vertex="1" parent="al9rC75p6lYIj5IH4z2D-27">
          <mxGeometry x="42" width="166" height="46" as="geometry">
            <mxRectangle width="166" height="46" as="alternateBounds" />
          </mxGeometry>
        </mxCell>
        <mxCell id="al9rC75p6lYIj5IH4z2D-30" value="" style="shape=partialRectangle;connectable=0;fillColor=none;top=0;left=0;bottom=0;right=0;align=left;spacingLeft=2;overflow=hidden;fontSize=11;" vertex="1" parent="al9rC75p6lYIj5IH4z2D-27">
          <mxGeometry x="208" width="22" height="46" as="geometry">
            <mxRectangle width="22" height="46" as="alternateBounds" />
          </mxGeometry>
        </mxCell>
        <mxCell id="al9rC75p6lYIj5IH4z2D-31" style="shape=tableRow;horizontal=0;startSize=0;swimlaneHead=0;swimlaneBody=0;fillColor=none;collapsible=0;dropTarget=0;points=[[0,0.5],[1,0.5]];portConstraint=eastwest;top=0;left=0;right=0;bottom=0;" vertex="1" parent="al9rC75p6lYIj5IH4z2D-18">
          <mxGeometry y="163" width="230" height="46" as="geometry" />
        </mxCell>
        <mxCell id="al9rC75p6lYIj5IH4z2D-32" value="decimal" style="shape=partialRectangle;connectable=0;fillColor=none;top=0;left=0;bottom=0;right=0;align=left;spacingLeft=2;overflow=hidden;fontSize=11;" vertex="1" parent="al9rC75p6lYIj5IH4z2D-31">
          <mxGeometry width="42" height="46" as="geometry">
            <mxRectangle width="42" height="46" as="alternateBounds" />
          </mxGeometry>
        </mxCell>
        <mxCell id="al9rC75p6lYIj5IH4z2D-33" value="Precio" style="shape=partialRectangle;connectable=0;fillColor=none;top=0;left=0;bottom=0;right=0;align=left;spacingLeft=2;overflow=hidden;fontSize=11;" vertex="1" parent="al9rC75p6lYIj5IH4z2D-31">
          <mxGeometry x="42" width="166" height="46" as="geometry">
            <mxRectangle width="166" height="46" as="alternateBounds" />
          </mxGeometry>
        </mxCell>
        <mxCell id="al9rC75p6lYIj5IH4z2D-34" value="" style="shape=partialRectangle;connectable=0;fillColor=none;top=0;left=0;bottom=0;right=0;align=left;spacingLeft=2;overflow=hidden;fontSize=11;" vertex="1" parent="al9rC75p6lYIj5IH4z2D-31">
          <mxGeometry x="208" width="22" height="46" as="geometry">
            <mxRectangle width="22" height="46" as="alternateBounds" />
          </mxGeometry>
        </mxCell>
        <mxCell id="al9rC75p6lYIj5IH4z2D-35" style="shape=tableRow;horizontal=0;startSize=0;swimlaneHead=0;swimlaneBody=0;fillColor=none;collapsible=0;dropTarget=0;points=[[0,0.5],[1,0.5]];portConstraint=eastwest;top=0;left=0;right=0;bottom=0;" vertex="1" parent="al9rC75p6lYIj5IH4z2D-18">
          <mxGeometry y="209" width="230" height="46" as="geometry" />
        </mxCell>
        <mxCell id="al9rC75p6lYIj5IH4z2D-36" value="int" style="shape=partialRectangle;connectable=0;fillColor=none;top=0;left=0;bottom=0;right=0;align=left;spacingLeft=2;overflow=hidden;fontSize=11;" vertex="1" parent="al9rC75p6lYIj5IH4z2D-35">
          <mxGeometry width="42" height="46" as="geometry">
            <mxRectangle width="42" height="46" as="alternateBounds" />
          </mxGeometry>
        </mxCell>
        <mxCell id="al9rC75p6lYIj5IH4z2D-37" value="Capacidad" style="shape=partialRectangle;connectable=0;fillColor=none;top=0;left=0;bottom=0;right=0;align=left;spacingLeft=2;overflow=hidden;fontSize=11;" vertex="1" parent="al9rC75p6lYIj5IH4z2D-35">
          <mxGeometry x="42" width="166" height="46" as="geometry">
            <mxRectangle width="166" height="46" as="alternateBounds" />
          </mxGeometry>
        </mxCell>
        <mxCell id="al9rC75p6lYIj5IH4z2D-38" value="" style="shape=partialRectangle;connectable=0;fillColor=none;top=0;left=0;bottom=0;right=0;align=left;spacingLeft=2;overflow=hidden;fontSize=11;" vertex="1" parent="al9rC75p6lYIj5IH4z2D-35">
          <mxGeometry x="208" width="22" height="46" as="geometry">
            <mxRectangle width="22" height="46" as="alternateBounds" />
          </mxGeometry>
        </mxCell>
        <mxCell id="al9rC75p6lYIj5IH4z2D-39" style="shape=tableRow;horizontal=0;startSize=0;swimlaneHead=0;swimlaneBody=0;fillColor=none;collapsible=0;dropTarget=0;points=[[0,0.5],[1,0.5]];portConstraint=eastwest;top=0;left=0;right=0;bottom=0;" vertex="1" parent="al9rC75p6lYIj5IH4z2D-18">
          <mxGeometry y="255" width="230" height="46" as="geometry" />
        </mxCell>
        <mxCell id="al9rC75p6lYIj5IH4z2D-40" value="int" style="shape=partialRectangle;connectable=0;fillColor=none;top=0;left=0;bottom=0;right=0;align=left;spacingLeft=2;overflow=hidden;fontSize=11;" vertex="1" parent="al9rC75p6lYIj5IH4z2D-39">
          <mxGeometry width="42" height="46" as="geometry">
            <mxRectangle width="42" height="46" as="alternateBounds" />
          </mxGeometry>
        </mxCell>
        <mxCell id="al9rC75p6lYIj5IH4z2D-41" value="Disponibles" style="shape=partialRectangle;connectable=0;fillColor=none;top=0;left=0;bottom=0;right=0;align=left;spacingLeft=2;overflow=hidden;fontSize=11;" vertex="1" parent="al9rC75p6lYIj5IH4z2D-39">
          <mxGeometry x="42" width="166" height="46" as="geometry">
            <mxRectangle width="166" height="46" as="alternateBounds" />
          </mxGeometry>
        </mxCell>
        <mxCell id="al9rC75p6lYIj5IH4z2D-42" value="" style="shape=partialRectangle;connectable=0;fillColor=none;top=0;left=0;bottom=0;right=0;align=left;spacingLeft=2;overflow=hidden;fontSize=11;" vertex="1" parent="al9rC75p6lYIj5IH4z2D-39">
          <mxGeometry x="208" width="22" height="46" as="geometry">
            <mxRectangle width="22" height="46" as="alternateBounds" />
          </mxGeometry>
        </mxCell>
      </root>
    </mxGraphModel>
  </diagram>
</mxfile>
